# xmcd CD database file
#
# Track frame offsets:
#	150
#	21485
#	51300
#	88630
#	104447
#	126415
#	161382
#	180012
#	210102
#	245782
#	267787
#	293740
#
# Disc length: 4211 seconds
#
# Revision: 0
# Processed by: cddbd v1.5.1PL0 Copyright (c) Steve Scherf et al.
# Submitted via: CDex 1.60beta1
#
DISCID=a110710c
DTITLE=Golden Big Wheeler - Jump In
DYEAR=1997
DGENRE=Blues
TTITLE0=Gotta-Have Will Jump In
TTITLE1=Fire on the Mountain
TTITLE2=Chicago Winter Weather Blues
TTITLE3=Connie
TTITLE4=Just to Be With You
TTITLE5=Bad Situation Worse
TTITLE6=Guilty
TTITLE7=Big Wheeler's Christmas Bells
TTITLE8=Big Mishap
TTITLE9=Young Generation
TTITLE10=Jelly, Jelly
TTITLE11=You're So Fine
EXTD=YEAR: 1997
EXTT0=
EXTT1=
EXTT2=
EXTT3=
EXTT4=
EXTT5=
EXTT6=
EXTT7=
EXTT8=
EXTT9=
EXTT10=
EXTT11=
PLAYORDER=
